G04 EAGLE Gerber RS-274X export*
G75*
%MOMM*%
%FSLAX34Y34*%
%LPD*%
%IN*%
%IPPOS*%
%AMOC8*
5,1,8,0,0,1.08239X$1,22.5*%
G01*
%ADD10C,0.254000*%


D10*
X0Y20000D02*
X76Y18257D01*
X304Y16527D01*
X681Y14824D01*
X1206Y13160D01*
X1874Y11548D01*
X2680Y10000D01*
X3617Y8528D01*
X4679Y7144D01*
X5858Y5858D01*
X7144Y4679D01*
X8528Y3617D01*
X10000Y2680D01*
X11548Y1874D01*
X13160Y1206D01*
X14824Y681D01*
X16527Y304D01*
X18257Y76D01*
X20000Y0D01*
X280000Y0D01*
X281743Y76D01*
X283473Y304D01*
X285176Y681D01*
X286840Y1206D01*
X288452Y1874D01*
X290000Y2680D01*
X291472Y3617D01*
X292856Y4679D01*
X294142Y5858D01*
X295321Y7144D01*
X296383Y8528D01*
X297321Y10000D01*
X298126Y11548D01*
X298794Y13160D01*
X299319Y14824D01*
X299696Y16527D01*
X299924Y18257D01*
X300000Y20000D01*
X300076Y21743D01*
X300304Y23473D01*
X300681Y25176D01*
X301206Y26840D01*
X301874Y28452D01*
X302680Y30000D01*
X303617Y31472D01*
X304679Y32856D01*
X305858Y34142D01*
X307144Y35321D01*
X308528Y36383D01*
X310000Y37321D01*
X311548Y38126D01*
X313160Y38794D01*
X314824Y39319D01*
X316527Y39696D01*
X318257Y39924D01*
X320000Y40000D01*
X1190000Y40000D01*
X1191743Y39924D01*
X1193473Y39696D01*
X1195176Y39319D01*
X1196840Y38794D01*
X1198452Y38126D01*
X1200000Y37321D01*
X1201472Y36383D01*
X1202856Y35321D01*
X1204142Y34142D01*
X1205321Y32856D01*
X1206383Y31472D01*
X1207321Y30000D01*
X1208126Y28452D01*
X1208794Y26840D01*
X1209319Y25176D01*
X1209696Y23473D01*
X1209924Y21743D01*
X1210000Y20000D01*
X1210076Y18257D01*
X1210304Y16527D01*
X1210681Y14824D01*
X1211206Y13160D01*
X1211874Y11548D01*
X1212680Y10000D01*
X1213617Y8528D01*
X1214679Y7144D01*
X1215858Y5858D01*
X1217144Y4679D01*
X1218528Y3617D01*
X1220000Y2680D01*
X1221548Y1874D01*
X1223160Y1206D01*
X1224824Y681D01*
X1226527Y304D01*
X1228257Y76D01*
X1230000Y0D01*
X1250000Y0D01*
X1251743Y76D01*
X1253473Y304D01*
X1255176Y681D01*
X1256840Y1206D01*
X1258452Y1874D01*
X1260000Y2680D01*
X1261472Y3617D01*
X1262856Y4679D01*
X1264142Y5858D01*
X1265321Y7144D01*
X1266383Y8528D01*
X1267321Y10000D01*
X1268126Y11548D01*
X1268794Y13160D01*
X1269319Y14824D01*
X1269696Y16527D01*
X1269924Y18257D01*
X1270000Y20000D01*
X1270000Y280000D01*
X1269924Y281743D01*
X1269696Y283473D01*
X1269319Y285176D01*
X1268794Y286840D01*
X1268126Y288452D01*
X1267321Y290000D01*
X1266383Y291472D01*
X1265321Y292856D01*
X1264142Y294142D01*
X1262856Y295321D01*
X1261472Y296383D01*
X1260000Y297321D01*
X1258452Y298126D01*
X1256840Y298794D01*
X1255176Y299319D01*
X1253473Y299696D01*
X1251743Y299924D01*
X1250000Y300000D01*
X1230000Y300000D01*
X1228257Y299924D01*
X1226527Y299696D01*
X1224824Y299319D01*
X1223160Y298794D01*
X1221548Y298126D01*
X1220000Y297321D01*
X1218528Y296383D01*
X1217144Y295321D01*
X1215858Y294142D01*
X1214679Y292856D01*
X1213617Y291472D01*
X1212680Y290000D01*
X1211874Y288452D01*
X1211206Y286840D01*
X1210681Y285176D01*
X1210304Y283473D01*
X1210076Y281743D01*
X1210000Y280000D01*
X1209924Y278257D01*
X1209696Y276527D01*
X1209319Y274824D01*
X1208794Y273160D01*
X1208126Y271548D01*
X1207321Y270000D01*
X1206383Y268528D01*
X1205321Y267144D01*
X1204142Y265858D01*
X1202856Y264679D01*
X1201472Y263617D01*
X1200000Y262680D01*
X1198452Y261874D01*
X1196840Y261206D01*
X1195176Y260681D01*
X1193473Y260304D01*
X1191743Y260076D01*
X1190000Y260000D01*
X320000Y260000D01*
X318257Y260076D01*
X316527Y260304D01*
X314824Y260681D01*
X313160Y261206D01*
X311548Y261874D01*
X310000Y262680D01*
X308528Y263617D01*
X307144Y264679D01*
X305858Y265858D01*
X304679Y267144D01*
X303617Y268528D01*
X302680Y270000D01*
X301874Y271548D01*
X301206Y273160D01*
X300681Y274824D01*
X300304Y276527D01*
X300076Y278257D01*
X300000Y280000D01*
X299924Y281743D01*
X299696Y283473D01*
X299319Y285176D01*
X298794Y286840D01*
X298126Y288452D01*
X297321Y290000D01*
X296383Y291472D01*
X295321Y292856D01*
X294142Y294142D01*
X292856Y295321D01*
X291472Y296383D01*
X290000Y297321D01*
X288452Y298126D01*
X286840Y298794D01*
X285176Y299319D01*
X283473Y299696D01*
X281743Y299924D01*
X280000Y300000D01*
X20000Y300000D01*
X18257Y299924D01*
X16527Y299696D01*
X14824Y299319D01*
X13160Y298794D01*
X11548Y298126D01*
X10000Y297321D01*
X8528Y296383D01*
X7144Y295321D01*
X5858Y294142D01*
X4679Y292856D01*
X3617Y291472D01*
X2680Y290000D01*
X1874Y288452D01*
X1206Y286840D01*
X681Y285176D01*
X304Y283473D01*
X76Y281743D01*
X0Y280000D01*
X0Y20000D01*
X1256500Y269460D02*
X1256429Y268382D01*
X1256288Y267311D01*
X1256078Y266251D01*
X1255798Y265208D01*
X1255451Y264185D01*
X1255037Y263187D01*
X1254560Y262218D01*
X1254019Y261282D01*
X1253419Y260384D01*
X1252762Y259527D01*
X1252049Y258715D01*
X1251285Y257951D01*
X1250473Y257239D01*
X1249616Y256581D01*
X1248718Y255981D01*
X1247782Y255441D01*
X1246813Y254963D01*
X1245815Y254549D01*
X1244792Y254202D01*
X1243749Y253922D01*
X1242689Y253712D01*
X1241618Y253571D01*
X1240540Y253500D01*
X1239460Y253500D01*
X1238382Y253571D01*
X1237311Y253712D01*
X1236251Y253922D01*
X1235208Y254202D01*
X1234185Y254549D01*
X1233187Y254963D01*
X1232218Y255441D01*
X1231282Y255981D01*
X1230384Y256581D01*
X1229527Y257239D01*
X1228715Y257951D01*
X1227951Y258715D01*
X1227239Y259527D01*
X1226581Y260384D01*
X1225981Y261282D01*
X1225441Y262218D01*
X1224963Y263187D01*
X1224549Y264185D01*
X1224202Y265208D01*
X1223922Y266251D01*
X1223712Y267311D01*
X1223571Y268382D01*
X1223500Y269460D01*
X1223500Y270540D01*
X1223571Y271618D01*
X1223712Y272689D01*
X1223922Y273749D01*
X1224202Y274792D01*
X1224549Y275815D01*
X1224963Y276813D01*
X1225441Y277782D01*
X1225981Y278718D01*
X1226581Y279616D01*
X1227239Y280473D01*
X1227951Y281285D01*
X1228715Y282049D01*
X1229527Y282762D01*
X1230384Y283419D01*
X1231282Y284019D01*
X1232218Y284560D01*
X1233187Y285037D01*
X1234185Y285451D01*
X1235208Y285798D01*
X1236251Y286078D01*
X1237311Y286288D01*
X1238382Y286429D01*
X1239460Y286500D01*
X1240540Y286500D01*
X1241618Y286429D01*
X1242689Y286288D01*
X1243749Y286078D01*
X1244792Y285798D01*
X1245815Y285451D01*
X1246813Y285037D01*
X1247782Y284560D01*
X1248718Y284019D01*
X1249616Y283419D01*
X1250473Y282762D01*
X1251285Y282049D01*
X1252049Y281285D01*
X1252762Y280473D01*
X1253419Y279616D01*
X1254019Y278718D01*
X1254560Y277782D01*
X1255037Y276813D01*
X1255451Y275815D01*
X1255798Y274792D01*
X1256078Y273749D01*
X1256288Y272689D01*
X1256429Y271618D01*
X1256500Y270540D01*
X1256500Y269460D01*
X1256500Y29460D02*
X1256429Y28382D01*
X1256288Y27311D01*
X1256078Y26251D01*
X1255798Y25208D01*
X1255451Y24185D01*
X1255037Y23187D01*
X1254560Y22218D01*
X1254019Y21282D01*
X1253419Y20384D01*
X1252762Y19527D01*
X1252049Y18715D01*
X1251285Y17951D01*
X1250473Y17239D01*
X1249616Y16581D01*
X1248718Y15981D01*
X1247782Y15441D01*
X1246813Y14963D01*
X1245815Y14549D01*
X1244792Y14202D01*
X1243749Y13922D01*
X1242689Y13712D01*
X1241618Y13571D01*
X1240540Y13500D01*
X1239460Y13500D01*
X1238382Y13571D01*
X1237311Y13712D01*
X1236251Y13922D01*
X1235208Y14202D01*
X1234185Y14549D01*
X1233187Y14963D01*
X1232218Y15441D01*
X1231282Y15981D01*
X1230384Y16581D01*
X1229527Y17239D01*
X1228715Y17951D01*
X1227951Y18715D01*
X1227239Y19527D01*
X1226581Y20384D01*
X1225981Y21282D01*
X1225441Y22218D01*
X1224963Y23187D01*
X1224549Y24185D01*
X1224202Y25208D01*
X1223922Y26251D01*
X1223712Y27311D01*
X1223571Y28382D01*
X1223500Y29460D01*
X1223500Y30540D01*
X1223571Y31618D01*
X1223712Y32689D01*
X1223922Y33749D01*
X1224202Y34792D01*
X1224549Y35815D01*
X1224963Y36813D01*
X1225441Y37782D01*
X1225981Y38718D01*
X1226581Y39616D01*
X1227239Y40473D01*
X1227951Y41285D01*
X1228715Y42049D01*
X1229527Y42762D01*
X1230384Y43419D01*
X1231282Y44019D01*
X1232218Y44560D01*
X1233187Y45037D01*
X1234185Y45451D01*
X1235208Y45798D01*
X1236251Y46078D01*
X1237311Y46288D01*
X1238382Y46429D01*
X1239460Y46500D01*
X1240540Y46500D01*
X1241618Y46429D01*
X1242689Y46288D01*
X1243749Y46078D01*
X1244792Y45798D01*
X1245815Y45451D01*
X1246813Y45037D01*
X1247782Y44560D01*
X1248718Y44019D01*
X1249616Y43419D01*
X1250473Y42762D01*
X1251285Y42049D01*
X1252049Y41285D01*
X1252762Y40473D01*
X1253419Y39616D01*
X1254019Y38718D01*
X1254560Y37782D01*
X1255037Y36813D01*
X1255451Y35815D01*
X1255798Y34792D01*
X1256078Y33749D01*
X1256288Y32689D01*
X1256429Y31618D01*
X1256500Y30540D01*
X1256500Y29460D01*
X106500Y269460D02*
X106429Y268382D01*
X106288Y267311D01*
X106078Y266251D01*
X105798Y265208D01*
X105451Y264185D01*
X105037Y263187D01*
X104560Y262218D01*
X104019Y261282D01*
X103419Y260384D01*
X102762Y259527D01*
X102049Y258715D01*
X101285Y257951D01*
X100473Y257239D01*
X99616Y256581D01*
X98718Y255981D01*
X97782Y255441D01*
X96813Y254963D01*
X95815Y254549D01*
X94792Y254202D01*
X93749Y253922D01*
X92689Y253712D01*
X91618Y253571D01*
X90540Y253500D01*
X89460Y253500D01*
X88382Y253571D01*
X87311Y253712D01*
X86251Y253922D01*
X85208Y254202D01*
X84185Y254549D01*
X83187Y254963D01*
X82218Y255441D01*
X81282Y255981D01*
X80384Y256581D01*
X79527Y257239D01*
X78715Y257951D01*
X77951Y258715D01*
X77239Y259527D01*
X76581Y260384D01*
X75981Y261282D01*
X75441Y262218D01*
X74963Y263187D01*
X74549Y264185D01*
X74202Y265208D01*
X73922Y266251D01*
X73712Y267311D01*
X73571Y268382D01*
X73500Y269460D01*
X73500Y270540D01*
X73571Y271618D01*
X73712Y272689D01*
X73922Y273749D01*
X74202Y274792D01*
X74549Y275815D01*
X74963Y276813D01*
X75441Y277782D01*
X75981Y278718D01*
X76581Y279616D01*
X77239Y280473D01*
X77951Y281285D01*
X78715Y282049D01*
X79527Y282762D01*
X80384Y283419D01*
X81282Y284019D01*
X82218Y284560D01*
X83187Y285037D01*
X84185Y285451D01*
X85208Y285798D01*
X86251Y286078D01*
X87311Y286288D01*
X88382Y286429D01*
X89460Y286500D01*
X90540Y286500D01*
X91618Y286429D01*
X92689Y286288D01*
X93749Y286078D01*
X94792Y285798D01*
X95815Y285451D01*
X96813Y285037D01*
X97782Y284560D01*
X98718Y284019D01*
X99616Y283419D01*
X100473Y282762D01*
X101285Y282049D01*
X102049Y281285D01*
X102762Y280473D01*
X103419Y279616D01*
X104019Y278718D01*
X104560Y277782D01*
X105037Y276813D01*
X105451Y275815D01*
X105798Y274792D01*
X106078Y273749D01*
X106288Y272689D01*
X106429Y271618D01*
X106500Y270540D01*
X106500Y269460D01*
X106500Y29460D02*
X106429Y28382D01*
X106288Y27311D01*
X106078Y26251D01*
X105798Y25208D01*
X105451Y24185D01*
X105037Y23187D01*
X104560Y22218D01*
X104019Y21282D01*
X103419Y20384D01*
X102762Y19527D01*
X102049Y18715D01*
X101285Y17951D01*
X100473Y17239D01*
X99616Y16581D01*
X98718Y15981D01*
X97782Y15441D01*
X96813Y14963D01*
X95815Y14549D01*
X94792Y14202D01*
X93749Y13922D01*
X92689Y13712D01*
X91618Y13571D01*
X90540Y13500D01*
X89460Y13500D01*
X88382Y13571D01*
X87311Y13712D01*
X86251Y13922D01*
X85208Y14202D01*
X84185Y14549D01*
X83187Y14963D01*
X82218Y15441D01*
X81282Y15981D01*
X80384Y16581D01*
X79527Y17239D01*
X78715Y17951D01*
X77951Y18715D01*
X77239Y19527D01*
X76581Y20384D01*
X75981Y21282D01*
X75441Y22218D01*
X74963Y23187D01*
X74549Y24185D01*
X74202Y25208D01*
X73922Y26251D01*
X73712Y27311D01*
X73571Y28382D01*
X73500Y29460D01*
X73500Y30540D01*
X73571Y31618D01*
X73712Y32689D01*
X73922Y33749D01*
X74202Y34792D01*
X74549Y35815D01*
X74963Y36813D01*
X75441Y37782D01*
X75981Y38718D01*
X76581Y39616D01*
X77239Y40473D01*
X77951Y41285D01*
X78715Y42049D01*
X79527Y42762D01*
X80384Y43419D01*
X81282Y44019D01*
X82218Y44560D01*
X83187Y45037D01*
X84185Y45451D01*
X85208Y45798D01*
X86251Y46078D01*
X87311Y46288D01*
X88382Y46429D01*
X89460Y46500D01*
X90540Y46500D01*
X91618Y46429D01*
X92689Y46288D01*
X93749Y46078D01*
X94792Y45798D01*
X95815Y45451D01*
X96813Y45037D01*
X97782Y44560D01*
X98718Y44019D01*
X99616Y43419D01*
X100473Y42762D01*
X101285Y42049D01*
X102049Y41285D01*
X102762Y40473D01*
X103419Y39616D01*
X104019Y38718D01*
X104560Y37782D01*
X105037Y36813D01*
X105451Y35815D01*
X105798Y34792D01*
X106078Y33749D01*
X106288Y32689D01*
X106429Y31618D01*
X106500Y30540D01*
X106500Y29460D01*
M02*
