G04 EAGLE Gerber RS-274X export*
G75*
%MOMM*%
%FSLAX34Y34*%
%LPD*%
%INSoldermask Top*%
%IPPOS*%
%AMOC8*
5,1,8,0,0,1.08239X$1,22.5*%
G01*
%ADD10C,3.503200*%
%ADD11R,1.203200X1.303200*%
%ADD12R,1.303200X1.203200*%
%ADD13R,2.153200X0.853200*%
%ADD14C,1.727200*%
%ADD15R,1.253200X0.753200*%
%ADD16C,0.959600*%


D10*
X1240000Y270000D03*
X1240000Y30000D03*
X90000Y270000D03*
X90000Y30000D03*
D11*
X380000Y211500D03*
X380000Y228500D03*
D12*
X601500Y110000D03*
X618500Y110000D03*
X661500Y110000D03*
X678500Y110000D03*
X721500Y110000D03*
X738500Y110000D03*
D11*
X1100000Y211500D03*
X1100000Y228500D03*
X1140000Y211500D03*
X1140000Y228500D03*
D12*
X781500Y110000D03*
X798500Y110000D03*
X841500Y110000D03*
X858500Y110000D03*
X901500Y110000D03*
X918500Y110000D03*
X961500Y110000D03*
X978500Y110000D03*
D11*
X860000Y211500D03*
X860000Y228500D03*
X420000Y211500D03*
X420000Y228500D03*
X900000Y211500D03*
X900000Y228500D03*
D12*
X1021500Y110000D03*
X1038500Y110000D03*
X1081500Y110000D03*
X1098500Y110000D03*
X1141500Y110000D03*
X1158500Y110000D03*
X1201500Y110000D03*
X1218500Y110000D03*
X301500Y110000D03*
X318500Y110000D03*
X361500Y110000D03*
X378500Y110000D03*
X421500Y110000D03*
X438500Y110000D03*
X481500Y110000D03*
X498500Y110000D03*
D11*
X620000Y211500D03*
X620000Y228500D03*
X660000Y211500D03*
X660000Y228500D03*
D12*
X541500Y110000D03*
X558500Y110000D03*
D13*
X207250Y90150D03*
X207250Y102850D03*
X207250Y115550D03*
X207250Y128250D03*
X207250Y140950D03*
X207250Y153650D03*
X207250Y166350D03*
X207250Y179050D03*
X207250Y191750D03*
X207250Y204450D03*
X207250Y217150D03*
X207250Y229850D03*
X112750Y229850D03*
X112750Y217150D03*
X112750Y204450D03*
X112750Y191750D03*
X112750Y179050D03*
X112750Y166350D03*
X112750Y153650D03*
X112750Y140950D03*
X112750Y128250D03*
X112750Y115550D03*
X112750Y102850D03*
X112750Y90150D03*
D14*
X47620Y48400D02*
X32380Y48400D01*
X32380Y73800D02*
X47620Y73800D01*
X47620Y99200D02*
X32380Y99200D01*
X32380Y124600D02*
X47620Y124600D01*
X47620Y150000D02*
X32380Y150000D01*
X32380Y175400D02*
X47620Y175400D01*
X47620Y200800D02*
X32380Y200800D01*
X32380Y226200D02*
X47620Y226200D01*
X47620Y251600D02*
X32380Y251600D01*
D15*
X299250Y178750D03*
X299250Y166250D03*
X299250Y153750D03*
X299250Y141250D03*
X320750Y141250D03*
X320750Y153750D03*
X320750Y166250D03*
X320750Y178750D03*
X839250Y178750D03*
X839250Y166250D03*
X839250Y153750D03*
X839250Y141250D03*
X860750Y141250D03*
X860750Y153750D03*
X860750Y166250D03*
X860750Y178750D03*
X899250Y178750D03*
X899250Y166250D03*
X899250Y153750D03*
X899250Y141250D03*
X920750Y141250D03*
X920750Y153750D03*
X920750Y166250D03*
X920750Y178750D03*
X959250Y178750D03*
X959250Y166250D03*
X959250Y153750D03*
X959250Y141250D03*
X980750Y141250D03*
X980750Y153750D03*
X980750Y166250D03*
X980750Y178750D03*
X1019250Y178750D03*
X1019250Y166250D03*
X1019250Y153750D03*
X1019250Y141250D03*
X1040750Y141250D03*
X1040750Y153750D03*
X1040750Y166250D03*
X1040750Y178750D03*
X1079250Y178750D03*
X1079250Y166250D03*
X1079250Y153750D03*
X1079250Y141250D03*
X1100750Y141250D03*
X1100750Y153750D03*
X1100750Y166250D03*
X1100750Y178750D03*
X1139250Y178750D03*
X1139250Y166250D03*
X1139250Y153750D03*
X1139250Y141250D03*
X1160750Y141250D03*
X1160750Y153750D03*
X1160750Y166250D03*
X1160750Y178750D03*
X1199250Y178750D03*
X1199250Y166250D03*
X1199250Y153750D03*
X1199250Y141250D03*
X1220750Y141250D03*
X1220750Y153750D03*
X1220750Y166250D03*
X1220750Y178750D03*
X359250Y178750D03*
X359250Y166250D03*
X359250Y153750D03*
X359250Y141250D03*
X380750Y141250D03*
X380750Y153750D03*
X380750Y166250D03*
X380750Y178750D03*
X419250Y178750D03*
X419250Y166250D03*
X419250Y153750D03*
X419250Y141250D03*
X440750Y141250D03*
X440750Y153750D03*
X440750Y166250D03*
X440750Y178750D03*
X479250Y178750D03*
X479250Y166250D03*
X479250Y153750D03*
X479250Y141250D03*
X500750Y141250D03*
X500750Y153750D03*
X500750Y166250D03*
X500750Y178750D03*
X539250Y178750D03*
X539250Y166250D03*
X539250Y153750D03*
X539250Y141250D03*
X560750Y141250D03*
X560750Y153750D03*
X560750Y166250D03*
X560750Y178750D03*
X599250Y178750D03*
X599250Y166250D03*
X599250Y153750D03*
X599250Y141250D03*
X620750Y141250D03*
X620750Y153750D03*
X620750Y166250D03*
X620750Y178750D03*
X659250Y178750D03*
X659250Y166250D03*
X659250Y153750D03*
X659250Y141250D03*
X680750Y141250D03*
X680750Y153750D03*
X680750Y166250D03*
X680750Y178750D03*
X719250Y178750D03*
X719250Y166250D03*
X719250Y153750D03*
X719250Y141250D03*
X740750Y141250D03*
X740750Y153750D03*
X740750Y166250D03*
X740750Y178750D03*
X779250Y178750D03*
X779250Y166250D03*
X779250Y153750D03*
X779250Y141250D03*
X800750Y141250D03*
X800750Y153750D03*
X800750Y166250D03*
X800750Y178750D03*
D12*
X160000Y268500D03*
X160000Y251500D03*
X190000Y268500D03*
X190000Y251500D03*
X130000Y251500D03*
X130000Y268500D03*
D16*
X286068Y147320D03*
X269240Y162172D03*
X68580Y233840D03*
X182880Y228600D03*
X142500Y267500D03*
X340000Y170000D03*
X272500Y137500D03*
X400000Y170000D03*
X254920Y145080D03*
X459021Y167602D03*
X225000Y127500D03*
X520000Y170000D03*
X190000Y120000D03*
X580000Y170000D03*
X272500Y117500D03*
X640000Y170000D03*
X230000Y112500D03*
X699021Y167602D03*
X190000Y105000D03*
X760000Y170000D03*
X222500Y97500D03*
X820000Y170000D03*
X130000Y95000D03*
X880000Y170000D03*
X152500Y80000D03*
X939021Y167602D03*
X187500Y55000D03*
X1000000Y170000D03*
X190000Y65000D03*
X1060000Y170000D03*
X202500Y62500D03*
X1120000Y170000D03*
X137500Y152500D03*
X1179021Y167602D03*
X170000Y132500D03*
X1232500Y167500D03*
X130000Y197500D03*
X180000Y102500D03*
X310000Y190000D03*
X1210000Y190000D03*
X1150000Y190000D03*
X1090000Y190000D03*
X1030000Y190000D03*
X970000Y190000D03*
X910000Y190000D03*
X850000Y190000D03*
X790000Y190000D03*
X730000Y190000D03*
X670000Y190000D03*
X610000Y190000D03*
X550000Y190000D03*
X490000Y190000D03*
X430000Y190000D03*
X370000Y190000D03*
X190000Y195000D03*
X190000Y215000D03*
M02*
