G04 EAGLE Gerber RS-274X export*
G75*
%MOMM*%
%FSLAX34Y34*%
%LPD*%
%INSolderpaste Top*%
%IPPOS*%
%AMOC8*
5,1,8,0,0,1.08239X$1,22.5*%
G01*
%ADD10R,1.000000X1.100000*%
%ADD11R,1.100000X1.000000*%
%ADD12R,1.950000X0.650000*%
%ADD13R,1.050000X0.550000*%


D10*
X380000Y211500D03*
X380000Y228500D03*
D11*
X601500Y110000D03*
X618500Y110000D03*
X661500Y110000D03*
X678500Y110000D03*
X721500Y110000D03*
X738500Y110000D03*
D10*
X1100000Y211500D03*
X1100000Y228500D03*
X1140000Y211500D03*
X1140000Y228500D03*
D11*
X781500Y110000D03*
X798500Y110000D03*
X841500Y110000D03*
X858500Y110000D03*
X901500Y110000D03*
X918500Y110000D03*
X961500Y110000D03*
X978500Y110000D03*
D10*
X860000Y211500D03*
X860000Y228500D03*
X420000Y211500D03*
X420000Y228500D03*
X900000Y211500D03*
X900000Y228500D03*
D11*
X1021500Y110000D03*
X1038500Y110000D03*
X1081500Y110000D03*
X1098500Y110000D03*
X1141500Y110000D03*
X1158500Y110000D03*
X1201500Y110000D03*
X1218500Y110000D03*
X301500Y110000D03*
X318500Y110000D03*
X361500Y110000D03*
X378500Y110000D03*
X421500Y110000D03*
X438500Y110000D03*
X481500Y110000D03*
X498500Y110000D03*
D10*
X620000Y211500D03*
X620000Y228500D03*
X660000Y211500D03*
X660000Y228500D03*
D11*
X541500Y110000D03*
X558500Y110000D03*
D12*
X207250Y90150D03*
X207250Y102850D03*
X207250Y115550D03*
X207250Y128250D03*
X207250Y140950D03*
X207250Y153650D03*
X207250Y166350D03*
X207250Y179050D03*
X207250Y191750D03*
X207250Y204450D03*
X207250Y217150D03*
X207250Y229850D03*
X112750Y229850D03*
X112750Y217150D03*
X112750Y204450D03*
X112750Y191750D03*
X112750Y179050D03*
X112750Y166350D03*
X112750Y153650D03*
X112750Y140950D03*
X112750Y128250D03*
X112750Y115550D03*
X112750Y102850D03*
X112750Y90150D03*
D13*
X299250Y178750D03*
X299250Y166250D03*
X299250Y153750D03*
X299250Y141250D03*
X320750Y141250D03*
X320750Y153750D03*
X320750Y166250D03*
X320750Y178750D03*
X839250Y178750D03*
X839250Y166250D03*
X839250Y153750D03*
X839250Y141250D03*
X860750Y141250D03*
X860750Y153750D03*
X860750Y166250D03*
X860750Y178750D03*
X899250Y178750D03*
X899250Y166250D03*
X899250Y153750D03*
X899250Y141250D03*
X920750Y141250D03*
X920750Y153750D03*
X920750Y166250D03*
X920750Y178750D03*
X959250Y178750D03*
X959250Y166250D03*
X959250Y153750D03*
X959250Y141250D03*
X980750Y141250D03*
X980750Y153750D03*
X980750Y166250D03*
X980750Y178750D03*
X1019250Y178750D03*
X1019250Y166250D03*
X1019250Y153750D03*
X1019250Y141250D03*
X1040750Y141250D03*
X1040750Y153750D03*
X1040750Y166250D03*
X1040750Y178750D03*
X1079250Y178750D03*
X1079250Y166250D03*
X1079250Y153750D03*
X1079250Y141250D03*
X1100750Y141250D03*
X1100750Y153750D03*
X1100750Y166250D03*
X1100750Y178750D03*
X1139250Y178750D03*
X1139250Y166250D03*
X1139250Y153750D03*
X1139250Y141250D03*
X1160750Y141250D03*
X1160750Y153750D03*
X1160750Y166250D03*
X1160750Y178750D03*
X1199250Y178750D03*
X1199250Y166250D03*
X1199250Y153750D03*
X1199250Y141250D03*
X1220750Y141250D03*
X1220750Y153750D03*
X1220750Y166250D03*
X1220750Y178750D03*
X359250Y178750D03*
X359250Y166250D03*
X359250Y153750D03*
X359250Y141250D03*
X380750Y141250D03*
X380750Y153750D03*
X380750Y166250D03*
X380750Y178750D03*
X419250Y178750D03*
X419250Y166250D03*
X419250Y153750D03*
X419250Y141250D03*
X440750Y141250D03*
X440750Y153750D03*
X440750Y166250D03*
X440750Y178750D03*
X479250Y178750D03*
X479250Y166250D03*
X479250Y153750D03*
X479250Y141250D03*
X500750Y141250D03*
X500750Y153750D03*
X500750Y166250D03*
X500750Y178750D03*
X539250Y178750D03*
X539250Y166250D03*
X539250Y153750D03*
X539250Y141250D03*
X560750Y141250D03*
X560750Y153750D03*
X560750Y166250D03*
X560750Y178750D03*
X599250Y178750D03*
X599250Y166250D03*
X599250Y153750D03*
X599250Y141250D03*
X620750Y141250D03*
X620750Y153750D03*
X620750Y166250D03*
X620750Y178750D03*
X659250Y178750D03*
X659250Y166250D03*
X659250Y153750D03*
X659250Y141250D03*
X680750Y141250D03*
X680750Y153750D03*
X680750Y166250D03*
X680750Y178750D03*
X719250Y178750D03*
X719250Y166250D03*
X719250Y153750D03*
X719250Y141250D03*
X740750Y141250D03*
X740750Y153750D03*
X740750Y166250D03*
X740750Y178750D03*
X779250Y178750D03*
X779250Y166250D03*
X779250Y153750D03*
X779250Y141250D03*
X800750Y141250D03*
X800750Y153750D03*
X800750Y166250D03*
X800750Y178750D03*
D11*
X160000Y268500D03*
X160000Y251500D03*
X190000Y268500D03*
X190000Y251500D03*
X130000Y251500D03*
X130000Y268500D03*
M02*
