M48
;GenerationSoftware,Autodesk,EAGLE,9.6.2*%
;CreationDate,2023-02-10T01:08:01Z*%
FMAT,2
ICI,OFF
METRIC,TZ,000.000
T3C0.350
T2C1.016
T1C3.300
%
G90
M71
T1
X124000Y27000
X124000Y3000
X9000Y27000
X9000Y3000
T2
X4000Y25160
X4000Y4840
X4000Y7380
X4000Y9920
X4000Y12460
X4000Y15000
X4000Y17540
X4000Y20080
X4000Y22620
T3
X58000Y17000
X27250Y11750
X64000Y17000
X23000Y11250
X69902Y16760
X19000Y10500
X76000Y17000
X22250Y9750
X82000Y17000
X13000Y9500
X88000Y17000
X15250Y8000
X93902Y16760
X18750Y5500
X100000Y17000
X19000Y6500
X106000Y17000
X20250Y6250
X112000Y17000
X13750Y15250
X117902Y16760
X25492Y14508
X123250Y16750
X13000Y19750
X18000Y10250
X31000Y19000
X121000Y19000
X115000Y19000
X109000Y19000
X103000Y19000
X97000Y19000
X91000Y19000
X85000Y19000
X79000Y19000
X73000Y19000
X67000Y19000
X61000Y19000
X55000Y19000
X49000Y19000
X28607Y14732
X37000Y19000
X19000Y19500
X19000Y21500
X26924Y16217
X6858Y23384
X18288Y22860
X14250Y26750
X17000Y13250
X34000Y17000
X27250Y13750
X40000Y17000
X45902Y16760
X22500Y12750
X52000Y17000
X19000Y12000
X43000Y19000
M30