G04 EAGLE Gerber RS-274X export*
G75*
%MOMM*%
%FSLAX34Y34*%
%LPD*%
%IN*%
%IPPOS*%
%AMOC8*
5,1,8,0,0,1.08239X$1,22.5*%
G01*
%ADD10C,0.254000*%


D10*
X0Y10000D02*
X38Y9128D01*
X152Y8264D01*
X341Y7412D01*
X603Y6580D01*
X937Y5774D01*
X1340Y5000D01*
X1808Y4264D01*
X2340Y3572D01*
X2929Y2929D01*
X3572Y2340D01*
X4264Y1808D01*
X5000Y1340D01*
X5774Y937D01*
X6580Y603D01*
X7412Y341D01*
X8264Y152D01*
X9128Y38D01*
X10000Y0D01*
X390000Y0D01*
X390872Y38D01*
X391736Y152D01*
X392588Y341D01*
X393420Y603D01*
X394226Y937D01*
X395000Y1340D01*
X395736Y1808D01*
X396428Y2340D01*
X397071Y2929D01*
X397660Y3572D01*
X398192Y4264D01*
X398660Y5000D01*
X399063Y5774D01*
X399397Y6580D01*
X399659Y7412D01*
X399848Y8264D01*
X399962Y9128D01*
X400000Y10000D01*
X400000Y590000D01*
X399962Y590872D01*
X399848Y591736D01*
X399659Y592588D01*
X399397Y593420D01*
X399063Y594226D01*
X398660Y595000D01*
X398192Y595736D01*
X397660Y596428D01*
X397071Y597071D01*
X396428Y597660D01*
X395736Y598192D01*
X395000Y598660D01*
X394226Y599063D01*
X393420Y599397D01*
X392588Y599659D01*
X391736Y599848D01*
X390872Y599962D01*
X390000Y600000D01*
X10000Y600000D01*
X9128Y599962D01*
X8264Y599848D01*
X7412Y599659D01*
X6580Y599397D01*
X5774Y599063D01*
X5000Y598660D01*
X4264Y598192D01*
X3572Y597660D01*
X2929Y597071D01*
X2340Y596428D01*
X1808Y595736D01*
X1340Y595000D01*
X937Y594226D01*
X603Y593420D01*
X341Y592588D01*
X152Y591736D01*
X38Y590872D01*
X0Y590000D01*
X0Y10000D01*
X46500Y569460D02*
X46429Y568382D01*
X46288Y567311D01*
X46078Y566251D01*
X45798Y565208D01*
X45451Y564185D01*
X45037Y563187D01*
X44560Y562218D01*
X44019Y561282D01*
X43419Y560384D01*
X42762Y559527D01*
X42049Y558715D01*
X41285Y557951D01*
X40473Y557239D01*
X39616Y556581D01*
X38718Y555981D01*
X37782Y555441D01*
X36813Y554963D01*
X35815Y554549D01*
X34792Y554202D01*
X33749Y553922D01*
X32689Y553712D01*
X31618Y553571D01*
X30540Y553500D01*
X29460Y553500D01*
X28382Y553571D01*
X27311Y553712D01*
X26251Y553922D01*
X25208Y554202D01*
X24185Y554549D01*
X23187Y554963D01*
X22218Y555441D01*
X21282Y555981D01*
X20384Y556581D01*
X19527Y557239D01*
X18715Y557951D01*
X17951Y558715D01*
X17239Y559527D01*
X16581Y560384D01*
X15981Y561282D01*
X15441Y562218D01*
X14963Y563187D01*
X14549Y564185D01*
X14202Y565208D01*
X13922Y566251D01*
X13712Y567311D01*
X13571Y568382D01*
X13500Y569460D01*
X13500Y570540D01*
X13571Y571618D01*
X13712Y572689D01*
X13922Y573749D01*
X14202Y574792D01*
X14549Y575815D01*
X14963Y576813D01*
X15441Y577782D01*
X15981Y578718D01*
X16581Y579616D01*
X17239Y580473D01*
X17951Y581285D01*
X18715Y582049D01*
X19527Y582762D01*
X20384Y583419D01*
X21282Y584019D01*
X22218Y584560D01*
X23187Y585037D01*
X24185Y585451D01*
X25208Y585798D01*
X26251Y586078D01*
X27311Y586288D01*
X28382Y586429D01*
X29460Y586500D01*
X30540Y586500D01*
X31618Y586429D01*
X32689Y586288D01*
X33749Y586078D01*
X34792Y585798D01*
X35815Y585451D01*
X36813Y585037D01*
X37782Y584560D01*
X38718Y584019D01*
X39616Y583419D01*
X40473Y582762D01*
X41285Y582049D01*
X42049Y581285D01*
X42762Y580473D01*
X43419Y579616D01*
X44019Y578718D01*
X44560Y577782D01*
X45037Y576813D01*
X45451Y575815D01*
X45798Y574792D01*
X46078Y573749D01*
X46288Y572689D01*
X46429Y571618D01*
X46500Y570540D01*
X46500Y569460D01*
X386500Y569460D02*
X386429Y568382D01*
X386288Y567311D01*
X386078Y566251D01*
X385798Y565208D01*
X385451Y564185D01*
X385037Y563187D01*
X384560Y562218D01*
X384019Y561282D01*
X383419Y560384D01*
X382762Y559527D01*
X382049Y558715D01*
X381285Y557951D01*
X380473Y557239D01*
X379616Y556581D01*
X378718Y555981D01*
X377782Y555441D01*
X376813Y554963D01*
X375815Y554549D01*
X374792Y554202D01*
X373749Y553922D01*
X372689Y553712D01*
X371618Y553571D01*
X370540Y553500D01*
X369460Y553500D01*
X368382Y553571D01*
X367311Y553712D01*
X366251Y553922D01*
X365208Y554202D01*
X364185Y554549D01*
X363187Y554963D01*
X362218Y555441D01*
X361282Y555981D01*
X360384Y556581D01*
X359527Y557239D01*
X358715Y557951D01*
X357951Y558715D01*
X357239Y559527D01*
X356581Y560384D01*
X355981Y561282D01*
X355441Y562218D01*
X354963Y563187D01*
X354549Y564185D01*
X354202Y565208D01*
X353922Y566251D01*
X353712Y567311D01*
X353571Y568382D01*
X353500Y569460D01*
X353500Y570540D01*
X353571Y571618D01*
X353712Y572689D01*
X353922Y573749D01*
X354202Y574792D01*
X354549Y575815D01*
X354963Y576813D01*
X355441Y577782D01*
X355981Y578718D01*
X356581Y579616D01*
X357239Y580473D01*
X357951Y581285D01*
X358715Y582049D01*
X359527Y582762D01*
X360384Y583419D01*
X361282Y584019D01*
X362218Y584560D01*
X363187Y585037D01*
X364185Y585451D01*
X365208Y585798D01*
X366251Y586078D01*
X367311Y586288D01*
X368382Y586429D01*
X369460Y586500D01*
X370540Y586500D01*
X371618Y586429D01*
X372689Y586288D01*
X373749Y586078D01*
X374792Y585798D01*
X375815Y585451D01*
X376813Y585037D01*
X377782Y584560D01*
X378718Y584019D01*
X379616Y583419D01*
X380473Y582762D01*
X381285Y582049D01*
X382049Y581285D01*
X382762Y580473D01*
X383419Y579616D01*
X384019Y578718D01*
X384560Y577782D01*
X385037Y576813D01*
X385451Y575815D01*
X385798Y574792D01*
X386078Y573749D01*
X386288Y572689D01*
X386429Y571618D01*
X386500Y570540D01*
X386500Y569460D01*
X386500Y29460D02*
X386429Y28382D01*
X386288Y27311D01*
X386078Y26251D01*
X385798Y25208D01*
X385451Y24185D01*
X385037Y23187D01*
X384560Y22218D01*
X384019Y21282D01*
X383419Y20384D01*
X382762Y19527D01*
X382049Y18715D01*
X381285Y17951D01*
X380473Y17239D01*
X379616Y16581D01*
X378718Y15981D01*
X377782Y15441D01*
X376813Y14963D01*
X375815Y14549D01*
X374792Y14202D01*
X373749Y13922D01*
X372689Y13712D01*
X371618Y13571D01*
X370540Y13500D01*
X369460Y13500D01*
X368382Y13571D01*
X367311Y13712D01*
X366251Y13922D01*
X365208Y14202D01*
X364185Y14549D01*
X363187Y14963D01*
X362218Y15441D01*
X361282Y15981D01*
X360384Y16581D01*
X359527Y17239D01*
X358715Y17951D01*
X357951Y18715D01*
X357239Y19527D01*
X356581Y20384D01*
X355981Y21282D01*
X355441Y22218D01*
X354963Y23187D01*
X354549Y24185D01*
X354202Y25208D01*
X353922Y26251D01*
X353712Y27311D01*
X353571Y28382D01*
X353500Y29460D01*
X353500Y30540D01*
X353571Y31618D01*
X353712Y32689D01*
X353922Y33749D01*
X354202Y34792D01*
X354549Y35815D01*
X354963Y36813D01*
X355441Y37782D01*
X355981Y38718D01*
X356581Y39616D01*
X357239Y40473D01*
X357951Y41285D01*
X358715Y42049D01*
X359527Y42762D01*
X360384Y43419D01*
X361282Y44019D01*
X362218Y44560D01*
X363187Y45037D01*
X364185Y45451D01*
X365208Y45798D01*
X366251Y46078D01*
X367311Y46288D01*
X368382Y46429D01*
X369460Y46500D01*
X370540Y46500D01*
X371618Y46429D01*
X372689Y46288D01*
X373749Y46078D01*
X374792Y45798D01*
X375815Y45451D01*
X376813Y45037D01*
X377782Y44560D01*
X378718Y44019D01*
X379616Y43419D01*
X380473Y42762D01*
X381285Y42049D01*
X382049Y41285D01*
X382762Y40473D01*
X383419Y39616D01*
X384019Y38718D01*
X384560Y37782D01*
X385037Y36813D01*
X385451Y35815D01*
X385798Y34792D01*
X386078Y33749D01*
X386288Y32689D01*
X386429Y31618D01*
X386500Y30540D01*
X386500Y29460D01*
X46500Y29460D02*
X46429Y28382D01*
X46288Y27311D01*
X46078Y26251D01*
X45798Y25208D01*
X45451Y24185D01*
X45037Y23187D01*
X44560Y22218D01*
X44019Y21282D01*
X43419Y20384D01*
X42762Y19527D01*
X42049Y18715D01*
X41285Y17951D01*
X40473Y17239D01*
X39616Y16581D01*
X38718Y15981D01*
X37782Y15441D01*
X36813Y14963D01*
X35815Y14549D01*
X34792Y14202D01*
X33749Y13922D01*
X32689Y13712D01*
X31618Y13571D01*
X30540Y13500D01*
X29460Y13500D01*
X28382Y13571D01*
X27311Y13712D01*
X26251Y13922D01*
X25208Y14202D01*
X24185Y14549D01*
X23187Y14963D01*
X22218Y15441D01*
X21282Y15981D01*
X20384Y16581D01*
X19527Y17239D01*
X18715Y17951D01*
X17951Y18715D01*
X17239Y19527D01*
X16581Y20384D01*
X15981Y21282D01*
X15441Y22218D01*
X14963Y23187D01*
X14549Y24185D01*
X14202Y25208D01*
X13922Y26251D01*
X13712Y27311D01*
X13571Y28382D01*
X13500Y29460D01*
X13500Y30540D01*
X13571Y31618D01*
X13712Y32689D01*
X13922Y33749D01*
X14202Y34792D01*
X14549Y35815D01*
X14963Y36813D01*
X15441Y37782D01*
X15981Y38718D01*
X16581Y39616D01*
X17239Y40473D01*
X17951Y41285D01*
X18715Y42049D01*
X19527Y42762D01*
X20384Y43419D01*
X21282Y44019D01*
X22218Y44560D01*
X23187Y45037D01*
X24185Y45451D01*
X25208Y45798D01*
X26251Y46078D01*
X27311Y46288D01*
X28382Y46429D01*
X29460Y46500D01*
X30540Y46500D01*
X31618Y46429D01*
X32689Y46288D01*
X33749Y46078D01*
X34792Y45798D01*
X35815Y45451D01*
X36813Y45037D01*
X37782Y44560D01*
X38718Y44019D01*
X39616Y43419D01*
X40473Y42762D01*
X41285Y42049D01*
X42049Y41285D01*
X42762Y40473D01*
X43419Y39616D01*
X44019Y38718D01*
X44560Y37782D01*
X45037Y36813D01*
X45451Y35815D01*
X45798Y34792D01*
X46078Y33749D01*
X46288Y32689D01*
X46429Y31618D01*
X46500Y30540D01*
X46500Y29460D01*
M02*
