G04 EAGLE Gerber RS-274X export*
G75*
%MOMM*%
%FSLAX34Y34*%
%LPD*%
%INSoldermask Bottom*%
%IPPOS*%
%AMOC8*
5,1,8,0,0,1.08239X$1,22.5*%
G01*
%ADD10C,3.503200*%
%ADD11C,1.727200*%
%ADD12C,0.959600*%


D10*
X1240000Y270000D03*
X1240000Y30000D03*
X90000Y270000D03*
X90000Y30000D03*
D11*
X47620Y48400D02*
X32380Y48400D01*
X32380Y73800D02*
X47620Y73800D01*
X47620Y99200D02*
X32380Y99200D01*
X32380Y124600D02*
X47620Y124600D01*
X47620Y150000D02*
X32380Y150000D01*
X32380Y175400D02*
X47620Y175400D01*
X47620Y200800D02*
X32380Y200800D01*
X32380Y226200D02*
X47620Y226200D01*
X47620Y251600D02*
X32380Y251600D01*
D12*
X286068Y147320D03*
X269240Y162172D03*
X68580Y233840D03*
X182880Y228600D03*
X142500Y267500D03*
X340000Y170000D03*
X272500Y137500D03*
X400000Y170000D03*
X254920Y145080D03*
X459021Y167602D03*
X225000Y127500D03*
X520000Y170000D03*
X190000Y120000D03*
X580000Y170000D03*
X272500Y117500D03*
X640000Y170000D03*
X230000Y112500D03*
X699021Y167602D03*
X190000Y105000D03*
X760000Y170000D03*
X222500Y97500D03*
X820000Y170000D03*
X130000Y95000D03*
X880000Y170000D03*
X152500Y80000D03*
X939021Y167602D03*
X187500Y55000D03*
X1000000Y170000D03*
X190000Y65000D03*
X1060000Y170000D03*
X202500Y62500D03*
X1120000Y170000D03*
X137500Y152500D03*
X1179021Y167602D03*
X170000Y132500D03*
X1232500Y167500D03*
X130000Y197500D03*
X180000Y102500D03*
X310000Y190000D03*
X1210000Y190000D03*
X1150000Y190000D03*
X1090000Y190000D03*
X1030000Y190000D03*
X970000Y190000D03*
X910000Y190000D03*
X850000Y190000D03*
X790000Y190000D03*
X730000Y190000D03*
X670000Y190000D03*
X610000Y190000D03*
X550000Y190000D03*
X490000Y190000D03*
X430000Y190000D03*
X370000Y190000D03*
X190000Y195000D03*
X190000Y215000D03*
M02*
