M48
;GenerationSoftware,Autodesk,EAGLE,9.6.2*%
;CreationDate,2023-02-10T01:31:40Z*%
FMAT,2
ICI,OFF
METRIC,TZ,000.000
T3C0.350
T2C1.016
T1C3.300
%
G90
M71
T1
X3000Y3000
X3000Y57000
X37000Y57000
X37000Y3000
T2
X30160Y56000
X9840Y56000
X12380Y56000
X14920Y56000
X17460Y56000
X20000Y56000
X22540Y56000
X25080Y56000
X27620Y56000
T3
X11747Y29845
X11747Y26987
X22225Y26670
X22542Y45720
X28257Y25717
X26352Y45085
X10160Y20638
X10160Y40640
X16192Y20638
X17828Y42863
X22225Y20638
X23177Y41275
X17780Y29210
X17780Y26987
X10160Y14605
X12065Y38735
X16192Y14605
X19050Y39053
X23812Y29210
X23812Y26987
X22225Y14605
X21273Y38735
X28257Y13970
X28892Y40958
X16192Y8573
X10478Y26670
X10160Y8573
X9525Y42228
X22225Y8573
X20955Y44767
X28257Y7620
X22542Y46672
X13652Y38418
X14922Y28892
X14922Y22860
X14922Y16828
X22542Y50482
X23177Y51752
X12382Y30797
X11747Y20955
X18415Y31115
X17780Y20955
X24447Y31115
X23812Y20955
X5842Y25400
X11747Y14287
X17780Y2984
X17780Y14287
X23812Y2984
X23812Y14287
X11684Y25400
X17780Y25400
X12700Y34544
X13652Y45085
X9398Y4826
X10160Y2286
X5588Y6858
X5334Y12700
X10922Y13462
X10795Y46355
X16828Y26670
X22352Y47942
X11874Y3175
M30